HIERARCHY
ROOT RootJoint
{
    OFFSET   0.000000   0.000000   0.000000
    CHANNELS 6 Xposition Yposition Zposition Xrotation Yrotation Zrotation
    JOINT pelvis_lowerback
    {
        OFFSET   0.000000   0.093605   0.000000
        CHANNELS 3 Xrotation Yrotation Zrotation
        JOINT lowerback_torso
        {
            OFFSET   0.000000   0.100000   0.000000
            CHANNELS 3 Xrotation Yrotation Zrotation
            JOINT torso_head
            {
                OFFSET   0.000000   0.282350   0.000000
                CHANNELS 3 Xrotation Yrotation Zrotation
                End Site
                {
                    OFFSET   0.000000   0.192650   0.000000
                }
            }
            JOINT rTorso_Clavicle
            {
                OFFSET  -0.001000   0.157500   0.000000
                CHANNELS 3 Xrotation Yrotation Zrotation
                JOINT rShoulder
                {
                    OFFSET  -0.117647   0.000000   0.000000
                    CHANNELS 3 Xrotation Yrotation Zrotation
                    JOINT rElbow
                    {
                        OFFSET  -0.245000   0.000000   0.000000
                        CHANNELS 3 Xrotation Yrotation Zrotation
                        JOINT rWrist
                        {
                            OFFSET  -0.240000   0.000000   0.000000
                            CHANNELS 3 Xrotation Yrotation Zrotation
                            End Site
                            {
                                OFFSET  -0.116353  -0.002500   0.000000
                            }
                        }
                    }
                }
            }
            JOINT lTorso_Clavicle
            {
                OFFSET   0.001000   0.157500   0.000000
                CHANNELS 3 Xrotation Yrotation Zrotation
                JOINT lShoulder
                {
                    OFFSET   0.117647   0.000000   0.000000
                    CHANNELS 3 Xrotation Yrotation Zrotation
                    JOINT lElbow
                    {
                        OFFSET   0.245000   0.000000   0.000000
                        CHANNELS 3 Xrotation Yrotation Zrotation
                        JOINT lWrist
                        {
                            OFFSET   0.240000   0.000000   0.000000
                            CHANNELS 3 Xrotation Yrotation Zrotation
                            End Site
                            {
                                OFFSET   0.116353  -0.002500   0.000000
                            }
                        }
                    }
                }
            }
        }
    }
    JOINT rHip
    {
        OFFSET  -0.100000  -0.051395   0.000000
        CHANNELS 3 Xrotation Yrotation Zrotation
        JOINT rKnee
        {
            OFFSET   0.000000  -0.410000   0.000000
            CHANNELS 3 Xrotation Yrotation Zrotation
            JOINT rAnkle
            {
                OFFSET   0.000000  -0.390000   0.000000
                CHANNELS 3 Xrotation Yrotation Zrotation
                JOINT rToeJoint
                {
                    OFFSET   0.000000  -0.050000   0.130000
                    CHANNELS 3 Xrotation Yrotation Zrotation
                    End Site
                    {
                        OFFSET  -0.010000   0.002000   0.060000
                    }
                }
            }
        }
    }
    JOINT lHip
    {
        OFFSET   0.100000  -0.051395   0.000000
        CHANNELS 3 Xrotation Yrotation Zrotation
        JOINT lKnee
        {
            OFFSET   0.000000  -0.410000   0.000000
            CHANNELS 3 Xrotation Yrotation Zrotation
            JOINT lAnkle
            {
                OFFSET   0.000000  -0.390000   0.000000
                CHANNELS 3 Xrotation Yrotation Zrotation
                JOINT lToeJoint
                {
                    OFFSET   0.000000  -0.050000   0.130000
                    CHANNELS 3 Xrotation Yrotation Zrotation
                    End Site
                    {
                        OFFSET   0.010000   0.002000   0.060000
                    }
                }
            }
        }
    }
}
MOTION
Frames: 11
Frame Time:   0.008333
 -2.436561   0.901338   4.119918   0.678250  -4.494446   2.134024   8.327834   3.764084  -0.552388   2.361534   0.425277   1.551466  -2.956642   1.430551   0.109893   3.129973  -1.910822   8.688127   5.291414   9.237236  49.286431  -0.000175  20.404687   0.000563   3.089813   2.703663   0.953490   2.707906   4.024284  -8.824674   9.002380  -6.533025 -51.060768   0.000004 -28.218328  -0.000014   4.077030  -3.997272  -0.940970   1.649998  -1.119697  -3.122304  18.080489  -0.000093   0.001265 -20.866063  -1.696182  -2.227607   1.804041  -0.000224   0.000048 -17.765667  -1.282980   3.824449  42.945857  -0.000531  -0.000939 -14.645679   7.592686   2.164858  -4.097617   0.001949  -0.000738
 -2.436268   0.901111   4.123771   0.761474  -4.598001   2.285394   8.528447   3.889051  -0.556693   2.401742   0.524689   1.424591  -3.106539   1.445512   0.088846   3.082817  -1.739177   8.724952   5.143368   9.360514  49.200956  -0.000200  20.351894   0.000648   3.106420   2.658380   0.978674   2.696073   4.111047  -8.893584   9.091243  -6.443587 -50.997514   0.000007 -28.172271   0.000019   4.075543  -4.040197  -0.952564   1.911482  -1.144421  -3.337590  17.892987  -0.000140   0.001216 -21.020436  -1.592552  -2.168461   1.803499  -0.000179   0.000038 -18.427256  -1.289024   3.721720  42.133555   0.000209  -0.000233 -14.559912   7.652341   2.023648  -3.913940   0.001952  -0.000549
 -2.435967   0.900779   4.127689   0.855696  -4.658905   2.418409   8.732444   4.006587  -0.547918   2.436560   0.621530   1.301644  -3.252673   1.458151   0.066218   3.027089  -1.566109   8.753589   4.996152   9.483144  49.117735  -0.000211  20.305469   0.000704   3.122544   2.614871   1.003545   2.686728   4.190229  -8.959441   9.176037  -6.358512 -50.940044   0.000006 -28.125878   0.000050   4.075029  -4.060944  -0.961172   2.164083  -1.187604  -3.529116  17.719834  -0.000180   0.001124 -21.185690  -1.513841  -2.108364   1.764016  -0.000149   0.000030 -19.106494  -1.304485   3.663009  41.215940   0.000906   0.000010 -14.483867   7.707112   1.891553  -3.730902   0.001937  -0.000332
 -2.435636   0.900342   4.131736   0.942406  -4.702974   2.540647   8.940709   4.128638  -0.538720   2.478782   0.722852   1.184852  -3.387504   1.470122   0.045004   2.966750  -1.396353   8.776159   4.852392   9.602746  49.036817  -0.000213  20.264786   0.000733   3.138133   2.583649   1.021320   2.680379   4.265421  -9.023029   9.257001  -6.277868 -50.888135   0.000002 -28.081372   0.000079   4.074746  -4.071264  -0.972227   2.425516  -1.236333  -3.710465  17.565980  -0.000211   0.001017 -21.355124  -1.447687  -2.049679   1.621767  -0.000142   0.000022 -19.791746  -1.326630   3.630604  40.310114   0.001515   0.000040 -14.414600   7.758066   1.768338  -3.562677   0.001866  -0.000152
 -2.435262   0.899805   4.135949   1.020164  -4.742036   2.656682   9.147520   4.255831  -0.532934   2.528077   0.829393   1.072581  -3.511165   1.481701   0.025200   2.904808  -1.232192   8.794989   4.713886   9.718042  48.959363  -0.000208  20.228681   0.000738   3.153312   2.562825   1.033359   2.679101   4.339603  -9.084751   9.336240  -6.199865 -50.841328  -0.000002 -28.038052   0.000106   4.074558  -4.072147  -0.986292   2.699222  -1.285014  -3.888783  17.429956  -0.000234   0.000911 -21.528998  -1.388304  -1.992957   1.375018  -0.000164   0.000011 -20.472656  -1.353504   3.614796  39.443740   0.002035   0.000016 -14.350735   7.805492   1.653377  -3.409499   0.001754  -0.000024
 -2.434839   0.899171   4.140344   1.091612  -4.781518   2.768351   9.348052   4.386463  -0.531215   2.581367   0.939838   0.964072  -3.625085   1.492871   0.006552   2.843103  -1.074911   8.811395   4.581579   9.828354  48.886102  -0.000200  20.196343   0.000726   3.168046   2.549791   1.041693   2.683601   4.413922  -9.144655   9.414748  -6.123644 -50.799308  -0.000008 -27.995504   0.000129   4.074445  -4.062782  -1.003617   2.984465  -1.331264  -4.066945  17.308960  -0.000250   0.000812 -21.707342  -1.332898  -1.938400   1.029573  -0.000221  -0.000005 -21.142631  -1.383947   3.610809  38.623303   0.002466   0.000003 -14.291622   7.849614   1.546103  -3.270419   0.001617   0.000056
 -2.434363   0.898442   4.144929   1.160040  -4.824109   2.876272   9.539116   4.518561  -0.533198   2.635727   1.052449   0.859195  -3.730610   1.503592  -0.011092   2.782660  -0.925086   8.826123   4.455831   9.933412  48.817311  -0.000189  20.167219   0.000699   3.182288   2.542731   1.047666   2.693437   4.488366  -9.202654   9.492545  -6.049104 -50.761700  -0.000013 -27.953709   0.000147   4.074397  -4.043540  -1.024081   3.279242  -1.374047  -4.246015  17.200470  -0.000261   0.000723 -21.890040  -1.279961  -1.886017   0.592563  -0.000317  -0.000025 -21.797274  -1.417136   3.616034  37.849511   0.002810   0.000024 -14.236827   7.890657   1.445997  -3.144295   0.001467   0.000098
 -2.433900   0.897621   4.149576   1.277874  -4.837192   2.982978   9.708325   4.621646  -0.529337   2.668026   1.131506   0.728896  -3.888208   1.509209  -0.006762   2.741804  -0.725886   8.897695   4.311025  10.077190  48.694323  -0.000152  20.165640   0.000566   3.185946   2.473615   1.070835   2.704384   4.552330  -9.281114   9.597762  -5.968994 -50.689636  -0.000104 -27.764695   0.000205   4.086226  -4.117689  -1.004646   3.510538  -1.437973  -4.420857  17.145543  -0.000242   0.000614 -22.186175  -1.255366  -1.798401   0.595383  -0.000253  -0.000020 -22.424534  -1.409817   3.653111  36.734102   0.003355  -0.000601 -14.135815   7.906371   1.361082  -3.093554   0.001247   0.000118
 -2.433430   0.896683   4.154346   1.401302  -4.820048   3.070987   9.878060   4.718171  -0.518819   2.697046   1.208621   0.605428  -4.040208   1.512285  -0.002730   2.688636  -0.525553   8.965543   4.163700  10.222015  48.578058  -0.000118  20.169732   0.000434   3.189653   2.425728   1.088408   2.721491   4.610975  -9.359805   9.702644  -5.889728 -50.623358  -0.000204 -27.579317   0.000254   4.100506  -4.135057  -0.993543   3.743668  -1.507115  -4.570984  17.102639  -0.000221   0.000509 -22.497377  -1.237520  -1.708410   0.576959  -0.000202  -0.000017 -23.057002  -1.410070   3.714763  35.604235   0.003815  -0.001393 -14.044503   7.920478   1.281849  -3.043480   0.001065   0.000146
 -2.432930   0.895635   4.159281   1.522057  -4.792037   3.149126  10.046669   4.819980  -0.511057   2.729639   1.291664   0.487501  -4.181189   1.514962   0.000953   2.629912  -0.329981   9.028939   4.018952  10.363608  48.469292  -0.000087  20.177027   0.000314   3.192980   2.398109   1.100389   2.742054   4.668385  -9.436968   9.804206  -5.813289 -50.563933  -0.000294 -27.403804   0.000310   4.114848  -4.130684  -0.990399   3.986874  -1.579806  -4.711657  17.069971  -0.000199   0.000418 -22.805725  -1.227799  -1.621583   0.437972  -0.000161  -0.000016 -23.685557  -1.416164   3.786652  34.521851   0.004168  -0.002047 -13.960480   7.933586   1.208029  -2.998608   0.000907   0.000163
 -2.432389   0.894481   4.164402   1.641191  -4.761195   3.221447  10.210201   4.927700  -0.508382   2.764964   1.380955   0.373338  -4.311625   1.517683   0.004120   2.568947  -0.141317   9.088458   3.878979  10.500337  48.367992  -0.000061  20.186213   0.000208   3.196160   2.384761   1.109232   2.766197   4.726133  -9.512157   9.902848  -5.739131 -50.510706  -0.000370 -27.238069   0.000367   4.128730  -4.115111  -0.992892   4.240738  -1.652498  -4.848879  17.045118  -0.000177   0.000343 -23.111445  -1.222213  -1.538229   0.183040  -0.000141  -0.000021 -24.303692  -1.426853   3.862454  33.499493   0.004415  -0.002489 -13.882688   7.945740   1.139219  -2.958974   0.000769   0.000169
